<svg xml:space="preserve" style="max-height: 500px" viewBox="0 0 134.5368 136.4" y="0px" x="0px" id="Layer_1" version="1.1" xmlns:xlink="http://www.w3.org/1999/xlink" xmlns="http://www.w3.org/2000/svg" width="134.5368" height="136.4">
<style type="text/css">
	.st0{fill:#298FC2;}
	.st1{fill:#636569;}
</style>
<path d="M66.2,0.8C29.9,0.8,0.4,30.3,0.4,66.7s29.5,65.8,65.8,65.8S132,103,132,66.7S102.6,0.8,66.2,0.8z M90.7,81.1  c0,9.8-7.9,15.5-21.4,15.5H43.5V36.7H68c6.9,0,12.4,1.8,15.7,5.1c2.5,2.5,3.8,5.8,3.8,9.9V52c0,7.3-4.7,12.6-11.5,14.1  c8.2,1.2,14.7,6.8,14.7,14.9L90.7,81.1L90.7,81.1z M103.6,60.7c-5.1,0-9.2-4.1-9.2-9.2s4.1-9.2,9.2-9.2s9.2,4.1,9.2,9.2  S108.6,60.7,103.6,60.7z" class="st0"/>
<g>
	<path d="M201.2,96.9h-25.8V36.4h23.9c12.6,0,17.3,5.1,17.3,13.3v6.2c0,4.4-1.9,7.5-6.7,9.5c5,1.2,8.9,5.6,8.9,11.2v5.9   C218.8,91,213.3,96.9,201.2,96.9L201.2,96.9z M203,51.7c0-2.6-1.6-4.3-5.5-4.3H189v13.8h8.5c3.6,0,5.5-1.8,5.5-4.3V51.7L203,51.7z    M205.1,76.9c0-3.4-2.1-5.1-5.7-5.1h-10.4v14.1h8.5c4.3,0,7.6-0.9,7.6-5.3L205.1,76.9L205.1,76.9z" class="st1"/>
	<path d="M227.9,96.9V36.4h13.6v60.6H227.9z" class="st1"/>
	<path d="M274.6,97.8c-14.7,0-22.2-7.6-22.2-18.5V54c0-11.2,7.5-18.5,22.2-18.5c7,0,14.2,0.9,19.4,1.9l-1.6,11.9   c-5.3-0.8-13.4-1.5-17.7-1.5c-6.8,0-8.5,3.5-8.5,8.3v20.8c0,4.7,1.7,8.6,8.5,8.6c2.7,0,4.5-0.1,8.1-0.6V66.5h12.8v28.5   C288.9,96.8,281.6,97.8,274.6,97.8L274.6,97.8z" class="st1"/>
	<path d="M351.2,79.5c0,10.1-6.3,18.4-21.9,18.4s-21.9-8.3-21.9-18.4V53.8c0-10.1,6.3-18.4,21.9-18.4   s21.9,8.3,21.9,18.4V79.5z M315.2,79.3c0,7.5,4.5,11.6,14.1,11.6s14.1-4.2,14.1-11.6V54c0-7.5-4.5-11.6-14.1-11.6   s-14.1,4.2-14.1,11.6V79.3z" class="st1"/>
	<path d="M407.8,36.4v43.6c0,9.9-5.7,17.9-21.5,17.9s-21.5-8-21.5-17.9V36.4h7.8v43.1c0,7.5,4.1,11.4,13.6,11.4   s13.6-3.9,13.6-11.4V36.4L407.8,36.4L407.8,36.4z" class="st1"/>
	<path d="M434.9,43.4h-18.1v-7h44v7h-18.1v53.6h-7.8L434.9,43.4L434.9,43.4z" class="st1"/>
	<path d="M486,97.8c-5.8,0-12.8-1.1-18-3.2l1.3-6.4c5.5,1.7,11.4,2.6,16.9,2.6c9.7,0,11.7-2.6,11.7-9.5   c0-8.2-0.1-8.9-12.5-11.7c-14.6-3.3-16.4-6.1-16.4-18.6c0-10.5,4.4-15.6,19.4-15.6c5.3,0,11.5,0.7,16.4,2l-0.6,6.6   c-4.8-1.1-10.5-1.7-15.5-1.7c-9.9,0-11.7,2-11.7,9c0,8.4,0,8.7,12,11.7c16.1,4,16.9,6.4,16.9,18.2C505.7,91.9,502.6,97.9,486,97.8   L486,97.8z" class="st1"/>
	<path d="M561.8,79.5c0,10.1-6.3,18.4-21.9,18.4S518,89.6,518,79.5V53.8c0-10.1,6.3-18.4,21.9-18.4s21.9,8.3,21.9,18.4   V79.5z M525.8,79.3c0,7.5,4.5,11.6,14.1,11.6S554,86.8,554,79.3V54c0-7.5-4.5-11.6-14.1-11.6s-14.1,4.2-14.1,11.6V79.3z" class="st1"/>
	<path d="M618.3,36.4v43.6c0,9.9-5.7,17.9-21.5,17.9s-21.5-8-21.5-17.9V36.4h7.8v43.1c0,7.5,4.1,11.4,13.6,11.4   s13.6-3.9,13.6-11.4V36.4C610.5,36.4,618.3,36.4,618.3,36.4z" class="st1"/>
	<path d="M656,75h-14.8v21.9h-7.8V36.4h23.1c13,0,17.5,5.6,17.5,14.9V60c0,7.2-2.6,12.1-9.6,14.1l15.7,22.8h-9L656,75   L656,75z M656.2,43.4h-15v24.7h15c7.5,0,10-2.1,10-8v-8.7C666.2,45.4,663.6,43.4,656.2,43.4z" class="st1"/>
	<path d="M696.2,79.6c0,8.5,3.3,11.2,13.2,11.2c3.6,0,9.5-0.5,14.2-1.3l0.8,6.7c-4.4,1-10.7,1.6-15.3,1.6   c-14.8,0-20.7-6.4-20.7-17.8V53.3c0-11.5,5.9-17.8,20.7-17.8c4.5,0,10.9,0.6,15.3,1.6l-0.8,6.7c-4.6-0.8-10.5-1.3-14.2-1.3   c-9.9,0-13.2,2.7-13.2,11.2V79.6L696.2,79.6z" class="st1"/>
	<path d="M736.7,36.4h35.6v7h-27.8v19h25.8v7h-25.8v20.6h27.9v7h-35.7V36.4L736.7,36.4z" class="st1"/>
</g>
</svg>